<svg xmlns="http://www.w3.org/2000/svg" viewBox="0 0 204 24"><g transform="translate(0 0) scale(0.1875)"><path fill-rule="evenodd" d="M90.767 127.126a7.968 7.968 0 0 0 6.35-.244l26.353-12.681a8 8 0 0 0 4.53-7.209V21.009a8 8 0 0 0-4.53-7.21L97.117 1.12a7.97 7.97 0 0 0-9.093 1.548l-50.45 46.026L15.6 32.013a5.328 5.328 0 0 0-6.807.302l-7.048 6.411a5.335 5.335 0 0 0-.006 7.888L20.796 64 1.74 81.387a5.336 5.336 0 0 0 .006 7.887l7.048 6.411a5.327 5.327 0 0 0 6.807.303l21.974-16.68 50.45 46.025a7.96 7.96 0 0 0 2.743 1.793Zm5.252-92.183L57.74 64l38.28 29.058V34.943Z" clip-rule="evenodd"/></g><g transform="translate(36 0)"><path d="M0 0v24h24V0zm3.723 3.111h5v1.834h-1.39v6.277h1.39v1.834h-5v-1.834h1.444V4.945H3.723zm11.055 0H17v6.5c0 .612-.055 1.111-.222 1.556-.167.444-.39.777-.723 1.11-.277.279-.666.557-1.11.668a3.933 3.933 0 0 1-1.445.278c-.778 0-1.444-.167-1.944-.445a4.81 4.81 0 0 1-1.279-1.056l1.39-1.555c.277.334.555.555.833.722.277.167.611.278.945.278.389 0 .721-.111 1-.389.221-.278.333-.667.333-1.278zM2.222 19.5h9V21h-9z"/></g><g transform="translate(72 0)"><path d="M2.214 4.954v13.615L7.655 24V10.314L3.312 3.845 2.214 4.954zm4.999 17.98l-4.557-4.548V5.136l.59-.596 3.967 5.908v12.485zm14.573-4.457l-.862.937-4.24-6.376V0l5.068 5.092.034 13.385zM7.431.001l12.998 19.835-3.637 3.637L3.787 3.683 7.43 0z"/></g><g transform="translate(108 0)"><path d="M12,24C5.448,24,0.118,18.617,0.118,12S5.448,0,12,0c6.552,0,11.882,5.383,11.882,12S18.552,24,12,24z M12,0.661 C5.813,0.661,0.779,5.748,0.779,12S5.813,23.339,12,23.339c6.187,0,11.221-5.086,11.221-11.339S18.187,0.661,12,0.661z M8.03,20.197 c0,0,0.978,0.069,2.236-0.042c0.51-0.045,2.444-0.235,3.891-0.552c0,0,1.764-0.377,2.707-0.725c0.987-0.364,1.524-0.673,1.766-1.11 c-0.011-0.09,0.074-0.408-0.381-0.599c-1.164-0.488-2.514-0.4-5.185-0.457c-2.962-0.102-3.948-0.598-4.472-0.997 c-0.503-0.405-0.25-1.526,1.907-2.513c1.086-0.526,5.345-1.496,5.345-1.496c-1.434-0.709-4.109-1.955-4.659-2.224 c-0.482-0.236-1.254-0.591-1.421-1.021c-0.19-0.413,0.448-0.768,0.804-0.87c1.147-0.331,2.766-0.536,4.24-0.56 c0.741-0.012,0.861-0.059,0.861-0.059c1.022-0.17,1.695-0.869,1.414-1.976c-0.252-1.13-1.579-1.795-2.84-1.565 c-1.188,0.217-4.05,1.048-4.05,1.048c3.539-0.031,4.131,0.028,4.395,0.398c0.156,0.218-0.071,0.518-1.015,0.672 c-1.027,0.168-3.163,0.37-3.163,0.37c-2.049,0.122-3.492,0.13-3.925,1.046C6.202,7.564,6.787,8.094,7.043,8.425 c1.082,1.204,2.646,1.853,3.652,2.331c0.379,0.18,1.49,0.52,1.49,0.52c-3.265-0.18-5.619,0.823-7.001,1.977 c-1.562,1.445-0.871,3.168,2.33,4.228c1.891,0.626,2.828,0.921,5.648,0.667c1.661-0.09,1.923-0.036,1.939,0.1 c0.023,0.192-1.845,0.669-2.355,0.816C11.448,19.438,8.047,20.193,8.03,20.197z"/></g><g transform="translate(144 0)"><path d="M20.953.004a.397.397 0 0 0-.18.017L3.225 5.585c-.175.055-.323.214-.402.398a.42.42 0 0 0-.06.22v5.726a.42.42 0 0 0 .06.22c.079.183.227.341.402.397l7.454 2.364-7.454 2.363c-.255.08-.463.374-.463.655v5.688c0 .282.208.444.463.363l17.55-5.565c.237-.075.426-.336.452-.6.003-.022.013-.04.013-.065V12.06c0-.281-.208-.575-.463-.656L13.4 9.065l7.375-2.339c.255-.08.462-.375.462-.656V.384c0-.211-.117-.355-.283-.38z"/></g><g transform="translate(180 0)"><path d="M12.968 4.97 4.364 0v3.55c0 .449.239.863.627 1.087l4.276 2.47zm5.339 3.083-3.7 2.138 4.86 2.807c.11-.19.17-.407.17-.633V9.552c0-.452-.241-.87-.633-1.096zm1.33 12.397c0-.449-.24-.863-.627-1.087l-4.253-2.456-3.7 2.137L19.637 24zm-13.92-4.49 3.7-2.137c-2.703-1.562-4.884-2.82-4.884-2.82a1.26 1.26 0 0 0-.17.632v2.813c0 .452.242.87.634 1.096zm-.287-1.252a.93.93 0 0 1 .343-.342l12.455-7.194-.01.007.786-.455c.392-.226.633-.643.633-1.096V2.815c0-.452-.241-.87-.633-1.096l-.765-.442a.944.944 0 0 1-.005 1.617l-.006.004-13.231 7.641a1.26 1.26 0 0 0-.633 1.096v2.813c0 .453.24.87.633 1.096l.72.416h.002a.944.944 0 0 1-.29-1.252m12.873-6.652a.945.945 0 0 1-.07 1.575l-.005.004-13.231 7.641a1.26 1.26 0 0 0-.633 1.096v2.813c0 .452.24.87.633 1.096l.765.442a.945.945 0 0 1 .01-1.62l12.456-7.194-.01.006.786-.454c.392-.226.633-.644.633-1.096V9.552c0-.453-.241-.87-.633-1.096l-.697-.403z"/></g></svg>
